<svg width="617.796" height="525.423" xmlns="http://www.w3.org/2000/svg" xmlns:svg="http://www.w3.org/2000/svg">
  <g >
   <path id="svg_2" d="m615.35498,185.73801c-3.99902,4.62601 -7.46503,9.90001 -12.12097,13.729c-7.19,5.911 -14.677,11.877 -22.94904,15.981c-26.57001,13.181 -53.24799,26.23799 -80.46799,37.989c-29.83902,12.88098 -60.116,24.81998 -90.57401,36.17398c-68.28101,25.45001 -138.375,44.99802 -208.897,63.14102c-31.32899,8.06 -63.058,13.47998 -95.166,16.74399c-16.2,1.647 -32.518,2.11099 -48.768,3.31799c-4.104,0.30499 -6.201,-1.422 -7.36,-5.03699c-1.174,-3.66 -0.885,-6.92401 2.681,-9.07202c6.537,-3.93799 13.151,-7.74698 19.73,-11.61499c0.56499,-0.332 1.106,-0.703 2.292,-1.46201c-4.057,-4.68799 -7.998,-9.28 -11.98201,-13.83499c-6.577,-7.51999 -13.147,-15.04501 -19.78199,-22.51498c-12.30798,-13.85703 -24.65698,-27.67801 -37.01098,-41.49301c-0.415,-0.46301 -1.078,-0.703 -1.625,-1.047c0,-0.33301 0,-0.66699 0,-1c6.666,-2.539 13.299,-5.17001 20.027,-7.53c1.203,-0.422 2.946,-0.04501 4.192,0.51498c9.242,4.14801 18.479,8.31702 27.61,12.70401c25.653,12.32501 51.262,24.742 76.863,37.17499c2.948,1.43201 5.521,1.53802 8.476,-0.22598c5.14801,-3.07001 10.42,-5.98401 15.838,-8.54401c26.55301,-12.54199 53.125,-25.04599 79.79301,-37.33899c8.67299,-3.99802 17.659,-7.31601 27.43599,-11.33002c-6.87698,-15.45399 -12.164,-31.207 -20.485,-45.14899c-13.244,-22.19099 -27.73599,-43.74901 -43.11499,-64.52701c-19.783,-26.729 -40.38301,-52.908 -61.72701,-78.40599c-16.822,-20.097 -33.839,-40.299 -55.975,-55.144c-0.127,-0.085 0.018,-0.576 0.042,-0.882c5.679,-1.107 11.351,-2.212 17.02399,-3.316c3,0 6,0 9,0c1.57201,0.324 3.186,0.515 4.708,0.995c6.278,1.979 13.556,2.629 18.625,6.307c38.38701,27.849 76.53601,56.03599 114.358,84.649c25.75099,19.481 50.82899,39.853 76.317,59.686c1.47501,1.146 4.505,2.064 5.854,1.33101c18.604,-10.11501 38.17499,-17.787 58.362,-24.033c5.21201,-1.612 11.362,-0.004 13.61499,4.951c2.939,6.468 5.63699,13.14999 7.44702,20.00299c2.38498,9.02101 -0.95901,14.957 -9.52701,18.56601c-10.78302,4.54199 -21.63901,8.90999 -32.72101,13.459c5.44299,4.97699 10.918,9.745 16.08801,14.82399c2.09799,2.061 3.80698,2.537 6.54199,1.36601c5.92099,-2.53401 11.927,-4.90302 18.013,-7.01001c29.41,-10.17999 58.83099,-20.334 88.31799,-30.28799c5.789,-1.955 11.828,-3.336 17.85501,-4.39c24.67999,-4.31601 49.54999,-5.246 74.41199,-2.313c11.724,1.384 23.25201,4.32201 28.73199,16.896c0.00299,2.33299 0.00299,4.66699 0.00299,7z" clip-rule="evenodd" fill-rule="evenodd"/>
   <path id="svg_3" d="m366.35501,522.73798c6.336,-9.75098 5.18799,-20.75699 3.45401,-31.02899c-7.85901,-46.57303 -20.80801,-91.802 -38.31302,-135.68301c-2.19199,-5.495 -5.40799,-10.58099 -8.20499,-15.961c34.76801,-12.14798 70.09399,-24.492 106.58798,-37.24399c-0.89297,11.41901 -1.79199,22.923 -2.68298,34.32498c9.888,-3.021 19.31198,-6.06799 28.84399,-8.73599c4.452,-1.24698 9.18799,-2.67899 13.64999,-2.29999c3.33401,0.28299 7.99899,2.565 9.336,5.298c3.66602,7.48798 6.48502,15.53699 8.48001,23.64899c1.40399,5.70901 -2.035,10.11401 -7.34,12.80099c-16.88,8.55301 -34.52802,14.561 -53.517,15.95502c-4.01901,0.29498 -5.44101,2.03998 -6.10202,5.97c-5.94498,35.354 -11.92798,70.702 -18.37799,105.965c-1.37399,7.513 -7.556,12.642 -13.58899,16.664c-6.25601,4.172 -13.44501,6.94196 -20.22702,10.32599c-0.664,0 -1.332,0 -1.99799,0z" clip-rule="evenodd" fill-rule="evenodd"/>
   <path id="svg_4" d="m145.86099,380.95099c-1.94701,17.771 -3.82001,34.87701 -5.74701,52.46399c-6.78,1.125 -13.577,2.375 -20.41899,3.27301c-1.23,0.16199 -3.391,-0.77499 -3.874,-1.79599c-7.439,-15.71802 -14.67101,-31.53302 -22.291,-48.06302c17.42201,-1.95697 34.29601,-3.85297 52.331,-5.87799z" clip-rule="evenodd" fill-rule="evenodd"/>
 </g>
</svg>